<svg width="113" height="87" viewBox="0 0 113 87" fill="none" xmlns="http://www.w3.org/2000/svg">
<path d="M53.5 0.978027C55.6345 0.978027 63.7165 0.99648 69.9954 1.17689C75.8439 1.34493 79.8937 2.00278 79.8098 3.2678C79.745 4.2444 76.3213 7.43656 74.9766 8.78125C74.0445 9.71331 73.1071 11.8116 72.6366 13.4576C72.3478 14.4683 71.7416 17.1205 71.6109 18.968C71.1358 25.6807 70.8399 32.8113 70.9285 39.0441C70.9406 39.8907 70.8608 65.535 71.1674 69.5233C71.2481 70.5737 71.021 74.8304 72.7421 76.2246C74.2473 77.444 75.0642 78.1756 81.8843 78.1836C82.5294 78.1843 87.2883 78.1394 90.6426 77.6144C94.4364 77.0206 97.7354 75.7505 99.0394 74.8789C100.361 73.9954 102.696 71.5532 103.519 70.4669C104.261 69.4872 105.61 67.5232 106.699 66.2853C106.928 66.0259 109.449 63.156 111.082 64.0406C112.722 64.929 112.207 68.3172 112.225 69.44C112.235 70.0638 112.099 72.716 111.881 75.9418C111.802 77.1191 111.163 80.3021 110.619 81.6447C109.928 83.3529 109.467 84.8447 107.011 85.1774C103.68 85.6286 102.504 85.7448 99.5701 85.8914C92.4295 86.2485 67.3932 86.0474 66.6367 86.0469C61.4823 86.0431 55.9643 85.8822 53.3026 85.9059C50.8912 85.9274 47.5081 85.4877 47.3941 83.2776C47.3206 81.8521 49.9621 80.5385 51.0463 79.6254C52.9331 78.0365 52.7442 77.9922 53.9281 76.23C55.1551 74.4039 55.6425 69.43 55.8399 63.9037C55.954 60.708 55.9827 40.1933 55.9827 33.2993C55.9827 28.8557 56.5726 18.5106 55.3326 14.5212C54.5117 11.8801 51.1064 11.2257 48.9951 10.536C46.2257 9.63148 41.2819 8.66846 35.0156 8.66846C31.0687 8.66846 28.3018 9.95019 26.7148 12.5137C25.1279 15.0771 24.3345 20.1634 24.3345 27.7725C24.3345 32.0449 25.1076 34.9543 26.6538 36.5005C28.2 38.0467 30.499 38.8198 33.5508 38.8198C36.6432 38.8198 39.5933 37.9653 42.4009 36.2564C45.2492 34.5474 46.7547 33.6929 46.9175 33.6929C48.423 33.6929 49.481 34.3846 50.0913 35.7681C50.7424 37.1515 51.0679 39.3895 51.0679 42.4819C51.0679 49.3179 49.3589 52.7358 45.9409 52.7358C45.3713 52.7358 43.8861 52.1255 41.4854 50.9048C39.1253 49.6434 37.396 49.0127 36.2974 49.0127C32.3911 49.0127 29.4411 49.7858 27.4473 51.332C25.4941 52.8376 24.5176 55.9097 24.5176 60.5483C24.5176 65.187 24.9245 69.2153 25.7383 72.6333C26.5521 76.0513 27.2031 78.2078 27.6914 79.103C28.1797 79.9982 28.7493 80.9341 29.4004 81.9106C30.0921 82.8872 30.438 83.5789 30.438 83.9858C30.438 85.4914 27.6914 86.2441 22.1982 86.2441H20.062L17.9258 86.1831C6.81738 86.1831 1.26318 85.0641 1.26318 82.8262C1.26318 81.6868 2.34147 80.4255 4.49805 79.042C6.69531 77.6585 8.03809 76.1937 8.52637 74.6475C9.01465 73.1012 9.25879 69.3578 9.25879 63.417V51.21L9.44189 44.6792L9.50293 38.0874V31.4346C9.50293 21.9945 9.13672 16.013 8.4043 13.4902C7.67188 10.9268 6.67497 9.19743 5.41357 8.30225C2.32113 6.06429 0.774902 4.74186 0.774902 4.33496C0.774902 2.9515 1.60905 2.05632 3.27734 1.64941C4.33529 1.40527 7.7736 1.2832 13.5923 1.2832L28.9121 0.978027L35.5649 0.794922L53.5 0.978027Z" fill="url(#paint0_linear_508_3)"/>
<defs>
<linearGradient id="paint0_linear_508_3" x1="21" y1="7.5" x2="91.5" y2="73.5" gradientUnits="userSpaceOnUse">
<stop/>
<stop offset="1" stop-color="#666666"/>
</linearGradient>
</defs>
</svg>
