<svg width="727" height="310" viewBox="0 0 727 310" fill="none" xmlns="http://www.w3.org/2000/svg">
<g clip-path="url(#clip0_10042_452)" filter="url(#filter0_d_10042_452)">
<path d="M54 48C54 39.1634 61.1634 32 70 32H647C655.837 32 663 39.1634 663 48V80H54V48Z" fill="#3EC253"/>
<path d="M54 80H663V208C663 216.837 655.837 224 647 224H70C61.1635 224 54 216.837 54 208V80Z" fill="white"/>
<path d="M87.022 62.5662H96.3324V63.587H87.022V62.5662ZM90.3836 51.5486H91.6684V53.5022H90.3836V51.5486ZM83.6956 52.9214H98.5676V56.2302H97.2652V53.9774H84.9628V56.2302H83.6956V52.9214ZM86.9516 55.0686H95.9804V58.6062H86.9516V57.5854H94.678V56.0718H86.9516V55.0686ZM87.0044 59.8206H97.1068V64.1502H95.8044V60.859H87.0044V59.8206ZM86.2476 55.0686H87.5148V64.1854H86.2476V55.0686ZM85.1388 49.331H90.8236V50.4222H85.1388V49.331ZM92.0028 49.331H99.1132V50.4222H92.0028V49.331ZM85.4732 47.9054L86.7228 48.2222C86.0716 49.771 85.0332 51.3022 84.0124 52.3054C83.766 52.1118 83.238 51.7422 82.9212 51.5838C83.9772 50.6686 84.9276 49.2782 85.4732 47.9054ZM92.4076 47.9054L93.6572 48.2046C93.0236 49.7358 91.9148 51.1614 90.806 52.0766C90.542 51.883 89.9964 51.5662 89.662 51.4078C90.8236 50.563 91.8444 49.2606 92.4076 47.9054ZM86.1244 50.1582L87.2684 49.859C87.6732 50.475 88.1308 51.3374 88.3068 51.883L87.11 52.235C86.9516 51.6894 86.5292 50.8094 86.1244 50.1582ZM93.5868 50.1758L94.7484 49.8238C95.294 50.4398 95.9276 51.3022 96.1916 51.883L94.9948 52.2702C94.7484 51.707 94.15 50.8094 93.5868 50.1758ZM108.23 53.2734V55.5438H114.777V53.2734H108.23ZM108.23 49.947V52.1822H114.777V49.947H108.23ZM107.033 48.803H116.044V56.6878H107.033V48.803ZM106.804 58.747H116.291V59.9614H106.804V58.747ZM105.449 62.3902H116.872V63.587H105.449V62.3902ZM100.662 49.1726H106.153V50.4222H100.662V49.1726ZM100.856 54.259H105.907V55.5086H100.856V54.259ZM100.486 60.9998C101.912 60.6126 104.024 59.9262 106.065 59.2398L106.294 60.507C104.376 61.1582 102.369 61.827 100.803 62.355L100.486 60.9998ZM102.862 49.6654H104.129V60.5774L102.862 60.8238V49.6654ZM110.923 49.3486H112.084V56.1246H112.172V62.9358H110.835V56.1246H110.923V49.3486ZM118.42 53.643H134.102V54.8222H118.42V53.643ZM119.969 50.1934H130.16V51.3726H119.969V50.1934ZM122.82 59.539H131.11V60.595H122.82V59.539ZM122.82 62.4606H131.11V63.6046H122.82V62.4606ZM124.492 47.9758H125.777V54.2766H124.492V47.9758ZM132.201 48.5918L133.328 49.1902C129.79 53.819 124.492 57.2862 118.86 59.451C118.702 59.1518 118.28 58.6062 118.016 58.3422C123.7 56.371 128.945 52.9566 132.201 48.5918ZM122.099 56.6878H131.955V64.115H130.582V57.7966H123.419V64.1854H122.099V56.6878ZM138.748 53.2382H148.939V54.4878H138.748V53.2382ZM138.748 57.4094H148.939V58.659H138.748V57.4094ZM138.748 61.5982H148.939V62.883H138.748V61.5982ZM137.833 49.067H149.784V64.0798H148.411V50.3694H139.153V64.0798H137.833V49.067ZM160.854 49.331H168.545V50.563H160.854V49.331ZM160.097 53.5374H169.478V54.7694H160.097V53.5374ZM163.846 54.1358H165.184V62.4782C165.184 63.235 165.043 63.6222 164.532 63.851C164.004 64.0798 163.195 64.0974 161.963 64.0974C161.91 63.7102 161.734 63.147 161.558 62.7422C162.456 62.7774 163.283 62.7774 163.529 62.7598C163.776 62.7422 163.846 62.6894 163.846 62.4606V54.1358ZM166.38 57.0574L167.507 56.7054C168.352 58.4126 169.214 60.6478 169.513 62.0382L168.299 62.4782C168.017 61.0878 167.208 58.7998 166.38 57.0574ZM161.312 56.7406L162.508 57.0222C161.98 59.0462 161.083 61.1054 160.132 62.4606C159.904 62.267 159.358 61.915 159.076 61.7566C160.044 60.507 160.836 58.6062 161.312 56.7406ZM153.532 51.707H159.833V52.9566H153.532V51.707ZM156.225 47.9758H157.528V64.1502H156.225V47.9758ZM156.049 52.4462L156.947 52.7278C156.366 55.3326 155.134 58.571 153.814 60.2254C153.673 59.8734 153.321 59.3102 153.075 58.9934C154.307 57.5502 155.521 54.7342 156.049 52.4462ZM157.44 53.3262C157.862 53.7838 159.552 55.931 159.921 56.4238L159.129 57.4798C158.689 56.635 157.299 54.5758 156.771 53.9246L157.44 53.3262ZM179.07 53.203C178.348 53.203 177.732 52.675 177.732 51.883C177.732 51.0734 178.348 50.5454 179.07 50.5454C179.774 50.5454 180.39 51.0734 180.39 51.883C180.39 52.675 179.774 53.203 179.07 53.203ZM179.07 61.8094C178.348 61.8094 177.732 61.299 177.732 60.4894C177.732 59.6798 178.348 59.1694 179.07 59.1694C179.774 59.1694 180.39 59.6798 180.39 60.4894C180.39 61.299 179.774 61.8094 179.07 61.8094ZM190.422 52.3934H195.596V53.5902H190.422V52.3934ZM189.788 48.9262H191.038V62.0734L189.788 62.3374V48.9262ZM188.556 61.9326C190.176 61.5278 192.745 60.8062 195.227 60.1022L195.385 61.3518C193.15 62.0382 190.739 62.7598 188.996 63.2702L188.556 61.9326ZM193.009 58.3422L194.065 57.8142C195.262 59.3278 196.512 61.3518 197.004 62.6718L195.843 63.2878C195.385 61.9502 194.153 59.8734 193.009 58.3422ZM190.387 48.9262H196.336V56.987H190.387V55.755H195.104V50.1582H190.387V48.9262ZM202.724 48.9438H204.08V59.6798C204.08 60.4366 203.939 60.8942 203.393 61.1406C202.883 61.4046 202.038 61.4222 200.806 61.4222C200.771 61.0174 200.56 60.3662 200.331 59.979C201.281 60.0142 202.126 59.9966 202.408 59.9966C202.654 59.9966 202.724 59.9086 202.724 59.6622V48.9438ZM197.673 48.9438H203.464V50.2638H199.011V64.1854H197.673V48.9438ZM211.102 49.9294H222.401V51.1614H211.102V49.9294ZM212.844 53.995V56.635H220.536V53.995H212.844ZM211.63 52.8686H221.82V57.7614H211.63V52.8686ZM212.721 58.1134C214.376 60.8766 217.984 62.5134 222.56 63.0238C222.278 63.3054 221.944 63.8334 221.768 64.203C217.104 63.5342 213.496 61.7038 211.63 58.483L212.721 58.1134ZM215.995 48.0462H217.297V55.843C217.297 59.2398 216.716 62.619 211.26 64.2382C211.102 63.939 210.732 63.411 210.468 63.1294C215.696 61.8094 215.995 58.7998 215.995 55.8254V48.0462ZM210.345 47.9406L211.595 48.3278C210.398 51.3022 208.515 54.259 206.561 56.2126C206.438 55.9134 206.068 55.227 205.822 54.9102C207.6 53.2382 209.324 50.6158 210.345 47.9406ZM208.497 52.5518L209.747 51.3022L209.764 51.3198V64.2558H208.497V52.5518ZM230.198 48.9086H231.536V61.2286C231.536 62.2494 231.764 62.4782 232.996 62.4782C233.595 62.4782 236.71 62.4782 237.449 62.4782C238.54 62.4782 238.716 61.9502 238.857 59.8558C239.174 60.067 239.737 60.2958 240.142 60.3838C239.913 62.8654 239.456 63.7278 237.502 63.7278C236.992 63.7278 233.401 63.7278 232.926 63.7278C230.832 63.7278 230.198 63.235 230.198 61.211V48.9086ZM230.832 48.9086H239.156V58.219H237.784V50.1934H230.832V48.9086ZM230.779 55.7902H238.312V57.0574H230.779V55.7902ZM234.035 49.3662H235.267V56.2302H234.035V49.3662ZM223.686 57.3214C225.129 56.9518 227.276 56.3182 229.371 55.7198L229.529 56.9518C227.628 57.5326 225.604 58.131 224.056 58.5886L223.686 57.3214ZM223.968 51.531H229.212V52.7806H223.968V51.531ZM226.08 47.9934H227.382V62.6542C227.382 63.3758 227.224 63.7102 226.801 63.9214C226.361 64.1326 225.728 64.1678 224.689 64.1502C224.636 63.8334 224.46 63.2878 224.302 62.9534C224.971 62.971 225.604 62.971 225.798 62.9534C225.992 62.9534 226.08 62.883 226.08 62.6542V47.9934ZM247.552 57.5326H256.721V58.747H247.552V57.5326ZM246.443 62.4606H257.566V63.675H246.443V62.4606ZM246.971 49.8238H257.408V52.6926H256.193V50.9678H248.132V52.851H246.971V49.8238ZM251.388 47.9758H252.673V50.563H251.388V47.9758ZM251.371 58.1134H252.673V63.0942H251.371V58.1134ZM252.884 50.827H254.099V54.435C254.099 54.8046 254.169 54.8574 254.574 54.8574C254.75 54.8574 255.648 54.8574 255.876 54.8574C256.246 54.8574 256.316 54.6814 256.352 53.3262C256.598 53.5198 257.091 53.7134 257.425 53.7838C257.302 55.5262 256.985 55.9662 256.017 55.9662C255.753 55.9662 254.644 55.9662 254.398 55.9662C253.166 55.9662 252.884 55.6318 252.884 54.435V50.827ZM249.998 50.8798H251.212C251.072 53.9422 250.473 55.6318 247.552 56.5118C247.446 56.2302 247.147 55.8078 246.9 55.579C249.452 54.8574 249.892 53.5022 249.998 50.8798ZM241.145 57.1102C242.518 56.6878 244.577 55.9662 246.566 55.2622L246.795 56.459C244.947 57.163 242.993 57.867 241.48 58.395L241.145 57.1102ZM241.392 51.531H246.672V52.763H241.392V51.531ZM243.609 47.9934H244.841V62.6366C244.841 63.3758 244.665 63.7278 244.225 63.939C243.82 64.1502 243.134 64.1854 242.025 64.1854C241.972 63.8686 241.814 63.323 241.638 62.9534C242.412 62.971 243.081 62.971 243.292 62.9534C243.504 62.9534 243.609 62.9006 243.609 62.6366V47.9934ZM259.326 61.9502H274.849V63.2702H259.326V61.9502ZM264.254 48.2046H265.592V62.4958H264.254V48.2046ZM268.566 48.2046H269.904V62.5838H268.566V48.2046ZM273.283 52.0766L274.497 52.6398C273.652 54.6814 272.456 57.1102 271.452 58.7646L270.361 58.1838C271.347 56.5822 272.596 54.0302 273.283 52.0766ZM259.713 52.3934L260.928 52.0238C261.86 53.9774 262.952 56.5822 263.427 58.131L262.107 58.6238C261.684 57.0574 260.628 54.3822 259.713 52.3934ZM278.088 57.8142H290.302V58.9758H278.088V57.8142ZM289.862 57.8142H291.182C291.182 57.8142 291.147 58.2014 291.112 58.395C290.707 61.5982 290.32 62.9534 289.704 63.499C289.334 63.851 288.929 63.939 288.278 63.9742C287.75 63.9918 286.694 63.9918 285.638 63.9214C285.62 63.5694 285.444 63.0766 285.216 62.7422C286.324 62.8478 287.468 62.8654 287.908 62.8654C288.278 62.8654 288.489 62.8478 288.683 62.707C289.14 62.3198 289.528 60.9822 289.844 57.9902L289.862 57.8142ZM283.702 56.0542L285.075 56.1774C284.371 60.947 282.048 63.059 277.595 64.1502C277.454 63.851 277.102 63.2878 276.856 63.0238C281.115 62.2142 283.209 60.3134 283.702 56.0542ZM281.52 49.7886H290.056V50.9326H281.52V49.7886ZM289.739 49.7886H290.003L290.232 49.7358L291.041 50.2814C288.489 54.083 282.628 55.843 277.19 56.4766C277.102 56.1422 276.873 55.6142 276.662 55.315C281.889 54.8222 287.609 53.1678 289.739 49.9646V49.7886ZM281.502 51.1262C283.42 53.6078 287.68 54.787 292.766 55.0862C292.502 55.3854 292.185 55.8958 292.027 56.2654C286.888 55.843 282.628 54.4878 280.411 51.5838L281.502 51.1262ZM282.593 47.9582L283.966 48.2222C282.787 50.1406 280.956 52.0766 278.281 53.5726C278.105 53.2558 277.718 52.7806 277.454 52.587C279.936 51.3022 281.678 49.507 282.593 47.9582ZM300.985 58.0606H307.99V59.0814H300.985V58.0606ZM299.348 49.3662H309.803V50.3694H299.348V49.3662ZM299.771 51.4958H309.363V52.4638H299.771V51.4958ZM298.803 53.6958H310.313V54.699H298.803V53.6958ZM300.985 60.419H308.043V61.4046H300.985V60.419ZM300.088 55.7374H307.99V56.7582H301.32V64.1502H300.088V55.7374ZM307.673 55.7374H308.94V62.6894C308.94 63.3582 308.8 63.7102 308.307 63.9038C307.814 64.0974 307.022 64.115 305.772 64.0974C305.72 63.7806 305.544 63.2878 305.385 62.9534C306.265 62.9886 307.11 62.9886 307.356 62.971C307.603 62.971 307.673 62.9006 307.673 62.6718V55.7374ZM303.854 47.9758H305.156V54.0126H303.854V47.9758ZM296.128 47.9758H297.342V64.1502H296.128V47.9758ZM294.737 51.3726L295.723 51.5134C295.67 52.8862 295.371 54.9278 294.966 56.2478L293.945 55.9134C294.35 54.699 294.632 52.763 294.737 51.3726ZM297.5 50.915L298.38 50.563C298.768 51.3726 299.19 52.411 299.348 53.0622L298.433 53.5022C298.257 52.8334 297.852 51.7422 297.5 50.915ZM322.95 55.8078H324.235V62.1086C324.235 62.619 324.323 62.7246 324.798 62.7246C325.009 62.7246 326.03 62.7246 326.312 62.7246C326.787 62.7246 326.875 62.3374 326.928 59.979C327.209 60.2078 327.755 60.419 328.107 60.5246C327.966 63.1998 327.649 63.9038 326.435 63.9038C326.153 63.9038 324.886 63.9038 324.622 63.9038C323.284 63.9038 322.95 63.499 322.95 62.1086V55.8078ZM312.32 49.8414L313.217 48.9966C314.344 49.8414 315.646 51.0734 316.262 51.9358L315.276 52.9214C314.713 52.0414 313.428 50.739 312.32 49.8414ZM311.774 61.1934C312.76 59.8382 314.203 57.4798 315.276 55.4558L316.174 56.371C315.188 58.2542 313.886 60.507 312.812 62.1438L311.774 61.1934ZM318.796 50.0702V54.8398H325.52V50.0702H318.796ZM317.512 48.8206H326.84V56.107H317.512V48.8206ZM319.553 55.7374H320.891C320.662 59.9614 320.028 62.707 316.156 64.1678C315.998 63.8686 315.628 63.3758 315.347 63.147C318.902 61.8622 319.377 59.4862 319.553 55.7374Z" fill="white"/>
<path d="M381.051 57.3566C382.459 56.987 384.588 56.3182 386.665 55.667L386.876 56.8814C384.976 57.4974 382.952 58.1486 381.403 58.6414L381.051 57.3566ZM381.315 51.6894H386.612V52.9214H381.315V51.6894ZM383.532 47.9934H384.8V62.5838C384.8 63.3054 384.641 63.675 384.201 63.9038C383.761 64.115 383.092 64.1678 381.948 64.1502C381.913 63.8158 381.755 63.2526 381.579 62.883C382.336 62.9006 383.022 62.9006 383.233 62.9006C383.444 62.9006 383.532 62.8302 383.532 62.5838V47.9934ZM387.035 51.7598H394.304V52.9742H387.035V51.7598ZM387.035 56.2654L387.774 55.3678C389.657 56.371 392.209 57.8846 393.459 58.8702L392.667 59.9086C391.452 58.9054 388.953 57.339 387.035 56.2654ZM393.67 51.7598H395.008C394.832 59.0638 394.779 62.9006 395.8 62.9006C396.116 62.9006 396.257 62.3198 396.31 60.5422C396.592 60.7886 397.084 61.035 397.401 61.1406C397.26 63.499 396.82 64.1678 395.712 64.1678C393.318 64.1678 393.6 59.5038 393.67 51.7598ZM389.71 47.9758L391.012 47.9582C391.1 56.283 390.784 61.1758 386.243 64.2206C386.084 63.9742 385.592 63.3934 385.31 63.147C389.675 60.5598 389.868 55.7198 389.71 47.9758ZM405.726 49.0494H414.368V50.3166H405.726V49.0494ZM410.865 54.2942H412.203V62.4782C412.203 63.3054 412.009 63.7102 411.411 63.9214C410.812 64.115 409.809 64.1326 408.084 64.1326C408.032 63.763 407.856 63.2174 407.662 62.8302C408.912 62.8654 410.091 62.8654 410.408 62.8478C410.76 62.8302 410.865 62.7598 410.865 62.4606V54.2942ZM404.952 53.907H414.878V55.1566H404.952V53.907ZM401.432 55.2622L402.593 54.1182L402.752 54.1886V64.2206H401.432V55.2622ZM403.473 51.7422L404.723 52.2174C403.35 54.4526 401.273 56.723 399.425 58.2014C399.232 57.9374 398.774 57.3566 398.492 57.1102C400.323 55.8078 402.259 53.7662 403.473 51.7422ZM402.752 47.9758L404.019 48.4862C402.84 50.035 401.027 51.7422 399.46 52.8686C399.267 52.587 398.915 52.0766 398.686 51.8126C400.147 50.827 401.854 49.243 402.752 47.9758ZM416.62 53.643H432.302V54.8222H416.62V53.643ZM418.169 50.1934H428.36V51.3726H418.169V50.1934ZM421.02 59.539H429.31V60.595H421.02V59.539ZM421.02 62.4606H429.31V63.6046H421.02V62.4606ZM422.692 47.9758H423.977V54.2766H422.692V47.9758ZM430.401 48.5918L431.528 49.1902C427.99 53.819 422.692 57.2862 417.06 59.451C416.902 59.1518 416.48 58.6062 416.216 58.3422C421.9 56.371 427.145 52.9566 430.401 48.5918ZM420.299 56.6878H430.155V64.115H428.782V57.7966H421.619V64.1854H420.299V56.6878ZM436.948 53.2382H447.139V54.4878H436.948V53.2382ZM436.948 57.4094H447.139V58.659H436.948V57.4094ZM436.948 61.5982H447.139V62.883H436.948V61.5982ZM436.033 49.067H447.984V64.0798H446.611V50.3694H437.353V64.0798H436.033V49.067ZM459.054 49.331H466.745V50.563H459.054V49.331ZM458.297 53.5374H467.678V54.7694H458.297V53.5374ZM462.046 54.1358H463.384V62.4782C463.384 63.235 463.243 63.6222 462.732 63.851C462.204 64.0798 461.395 64.0974 460.163 64.0974C460.11 63.7102 459.934 63.147 459.758 62.7422C460.656 62.7774 461.483 62.7774 461.729 62.7598C461.976 62.7422 462.046 62.6894 462.046 62.4606V54.1358ZM464.58 57.0574L465.707 56.7054C466.552 58.4126 467.414 60.6478 467.713 62.0382L466.499 62.4782C466.217 61.0878 465.408 58.7998 464.58 57.0574ZM459.512 56.7406L460.708 57.0222C460.18 59.0462 459.283 61.1054 458.332 62.4606C458.104 62.267 457.558 61.915 457.276 61.7566C458.244 60.507 459.036 58.6062 459.512 56.7406ZM451.732 51.707H458.033V52.9566H451.732V51.707ZM454.425 47.9758H455.728V64.1502H454.425V47.9758ZM454.249 52.4462L455.147 52.7278C454.566 55.3326 453.334 58.571 452.014 60.2254C451.873 59.8734 451.521 59.3102 451.275 58.9934C452.507 57.5502 453.721 54.7342 454.249 52.4462ZM455.64 53.3262C456.062 53.7838 457.752 55.931 458.121 56.4238L457.329 57.4798C456.889 56.635 455.499 54.5758 454.971 53.9246L455.64 53.3262ZM477.27 53.203C476.548 53.203 475.932 52.675 475.932 51.883C475.932 51.0734 476.548 50.5454 477.27 50.5454C477.974 50.5454 478.59 51.0734 478.59 51.883C478.59 52.675 477.974 53.203 477.27 53.203ZM477.27 61.8094C476.548 61.8094 475.932 61.299 475.932 60.4894C475.932 59.6798 476.548 59.1694 477.27 59.1694C477.974 59.1694 478.59 59.6798 478.59 60.4894C478.59 61.299 477.974 61.8094 477.27 61.8094ZM487.214 49.6654H502.508V50.8094H487.214V49.6654ZM494.096 47.9758H495.451V50.211H494.096V47.9758ZM487.988 56.547H501.065V57.6734H489.273V64.1854H487.988V56.547ZM500.52 56.547H501.84V62.6014C501.84 63.323 501.681 63.7102 501.118 63.939C500.555 64.1326 499.604 64.1502 498.144 64.1502C498.091 63.7806 497.897 63.2526 497.704 62.9006C498.865 62.9358 499.851 62.9358 500.15 62.9006C500.449 62.9006 500.52 62.8126 500.52 62.5662V56.547ZM491.508 58.8174H492.688V63.4286H491.508V58.8174ZM492.142 58.8174H498.232V62.531H492.142V61.5806H497.035V59.7678H492.142V58.8174ZM491.403 52.763V54.4702H498.284V52.763H491.403ZM490.136 51.795H499.622V55.4382H490.136V51.795ZM504.427 50.3694H513.244V51.5662H504.427V50.3694ZM508.123 48.0462H509.408V50.9326H508.123V48.0462ZM506.556 52.1646L507.806 52.4814C507.208 53.9246 506.24 55.4206 505.307 56.4062C505.078 56.195 504.568 55.7902 504.268 55.6142C505.201 54.7342 506.046 53.4494 506.556 52.1646ZM509.883 55.3502L511.185 55.6494C510.041 59.363 508.07 62.3022 505.395 64.203C505.201 63.9214 504.708 63.4286 504.409 63.1822C507.032 61.5102 508.897 58.7294 509.883 55.3502ZM509.707 52.6926L510.692 52.147C511.467 52.9566 512.329 54.1006 512.681 54.8574L511.625 55.5086C511.273 54.7342 510.464 53.555 509.707 52.6926ZM505.782 56.7582L506.75 55.9838C508.739 57.6206 511.027 59.9438 512.03 61.563L510.956 62.4782C510.006 60.8414 507.771 58.4478 505.782 56.7582ZM514.3 51.267H520.566V52.499H514.3V51.267ZM514.828 47.9758L516.131 48.1694C515.55 51.5838 514.564 54.787 513.121 56.8814C512.892 56.635 512.364 56.1774 512.065 55.9662C513.473 54.0654 514.336 51.0734 514.828 47.9758ZM518.208 51.9358L519.51 52.0766C518.665 58.1486 516.8 61.9326 512.382 64.2206C512.241 63.9214 511.854 63.3406 511.608 63.0766C515.796 61.1054 517.486 57.5502 518.208 51.9358ZM515.004 52.3406C515.761 57.1982 517.416 61.3518 520.654 63.0942C520.337 63.3582 519.932 63.851 519.739 64.1854C516.342 62.1614 514.705 57.8494 513.86 52.5342L515.004 52.3406ZM532.446 47.9758H533.696V60.243H532.446V47.9758ZM526.902 55.2446L536.388 51.2494L536.881 52.3758L527.412 56.4062L526.902 55.2446ZM528.803 49.6302H530.07V61.4046C530.07 62.3726 530.281 62.5838 531.46 62.5838C532.041 62.5838 534.998 62.5838 535.702 62.5838C536.74 62.5838 536.916 62.1086 537.04 60.0846C537.356 60.2958 537.867 60.507 538.236 60.5774C538.025 63.0062 537.603 63.7806 535.755 63.7806C535.28 63.7806 531.865 63.7806 531.425 63.7806C529.401 63.7806 528.803 63.3054 528.803 61.387V49.6302ZM536.16 51.4254H536.001L536.318 51.1614L536.547 50.9678L537.48 51.3198L537.427 51.5662C537.427 54.875 537.374 57.515 537.251 58.2014C537.145 58.9054 536.811 59.2398 536.3 59.363C535.825 59.4862 535.121 59.4862 534.646 59.4862C534.593 59.1342 534.488 58.6414 534.329 58.3422C534.734 58.3598 535.315 58.3598 535.508 58.3598C535.772 58.3598 535.948 58.2894 536.036 57.8846C536.142 57.427 536.16 54.9278 536.16 51.4254ZM521.992 52.2174H527.588V53.467H521.992V52.2174ZM524.262 48.187H525.512V59.6094H524.262V48.187ZM521.833 60.067C523.259 59.539 525.424 58.6238 527.518 57.7262L527.8 58.9054C525.916 59.803 523.928 60.7006 522.361 61.3694L521.833 60.067ZM542.865 53.0974H552.44V54.2942H542.865V53.0974ZM539.856 56.3358H555.467V57.5854H539.856V56.3358ZM544.484 57.1982H545.892C545.523 60.6302 544.537 63.0062 540.243 64.203C540.102 63.8686 539.75 63.3406 539.468 63.0766C543.428 62.091 544.185 60.067 544.484 57.1982ZM548.937 57.0926H550.257V62.0382C550.257 62.5662 550.38 62.6542 551.12 62.6542C551.472 62.6542 553.144 62.6542 553.601 62.6542C554.27 62.6542 554.393 62.3374 554.446 60.3134C554.728 60.5246 555.291 60.7358 555.643 60.8414C555.502 63.2526 555.115 63.8686 553.707 63.8686C553.355 63.8686 551.331 63.8686 550.979 63.8686C549.36 63.8686 548.937 63.4638 548.937 62.0558V57.0926ZM546.931 47.9934H548.321V50.7918H546.931V47.9934ZM540.26 49.8766H555.062V53.6078H553.672V51.1262H541.598V53.6078H540.26V49.8766ZM559.462 54.5758H563.844V55.8078H559.462V54.5758ZM563.316 54.5758H564.601C564.601 54.5758 564.601 54.963 564.601 55.139C564.513 59.1166 564.408 60.595 564.038 61.0878C563.756 61.4046 563.475 61.5278 562.982 61.5806C562.524 61.6334 561.732 61.6158 560.87 61.5806C560.835 61.1934 560.694 60.683 560.5 60.3486C561.292 60.419 562.067 60.419 562.366 60.419C562.612 60.419 562.788 60.4014 562.912 60.243C563.176 59.9262 563.264 58.6062 563.316 54.8046V54.5758ZM568.28 48.8734L569.072 48.0462C570.163 48.6094 571.553 49.4542 572.24 50.0702L571.412 50.9678C570.744 50.3518 569.388 49.4542 568.28 48.8734ZM570.796 53.643L572.116 53.9598C570.62 58.5534 567.998 61.9502 564.39 64.0798C564.196 63.8158 563.704 63.2702 563.422 63.0062C566.995 61.1054 569.476 57.8846 570.796 53.643ZM559.568 50.9678H573.19V52.2702H559.568V50.9678ZM558.723 50.9678H560.096V55.931C560.096 58.4302 559.814 61.9854 558.212 64.291C557.984 64.027 557.42 63.5694 557.104 63.411C558.564 61.2462 558.723 58.219 558.723 55.9134V50.9678ZM566.027 48.011H567.4C567.364 56.107 569.089 62.707 571.377 62.707C571.87 62.707 572.099 61.7918 572.204 59.451C572.504 59.7502 572.996 60.0494 573.348 60.1726C573.102 63.1822 572.609 64.0446 571.272 64.0446C567.681 64.0446 566.097 56.4414 566.027 48.011ZM575.9 49.9646H589.91V51.3374H575.9V49.9646ZM574.968 61.5102H590.79V62.8302H574.968V61.5102ZM582.078 50.651H583.556V62.0558H582.078V50.651ZM600.241 50.9326H608.584V52.1998H599.625L600.241 50.9326ZM602.441 54.7518H608.179V55.9662H602.441V54.7518ZM602.424 58.6238H608.425V59.8734H602.424V58.6238ZM601.772 51.3374H603.128V64.1678H601.772V51.3374ZM600.91 48.187L602.195 48.5214C601.192 51.3198 599.66 54.083 598.041 55.8958C597.848 55.667 597.32 55.1918 597.02 54.9806C598.622 53.3438 600.048 50.7742 600.91 48.187ZM596.686 48.0462L597.953 48.451C596.792 51.4254 594.979 54.435 593.06 56.4062C592.937 56.0894 592.532 55.3854 592.286 55.0686C594.046 53.3614 595.683 50.7214 596.686 48.0462ZM594.803 52.587L596.105 51.267L596.14 51.2846V64.1502H594.803V52.587ZM624.459 48.4158L625.444 49.5246C622.875 50.4046 618.932 51.0558 615.588 51.4606C615.536 51.1438 615.342 50.651 615.201 50.3342C618.475 49.9118 622.294 49.2078 624.459 48.4158ZM614.603 55.5262H626.166V56.7934H614.603V55.5262ZM615.289 62.2318H625.884V63.499H615.289V62.2318ZM619.848 50.3694H621.168V62.5838H619.848V50.3694ZM612.526 52.6574L613.828 51.355L613.846 51.3902V64.1678H612.526V52.6574ZM614.444 47.9934L615.729 48.3982C614.48 51.4606 612.508 54.5054 610.449 56.5118C610.308 56.195 609.904 55.5086 609.64 55.1742C611.54 53.4494 613.353 50.7566 614.444 47.9934ZM629.088 57.8142H641.302V58.9758H629.088V57.8142ZM640.862 57.8142H642.182C642.182 57.8142 642.147 58.2014 642.112 58.395C641.707 61.5982 641.32 62.9534 640.704 63.499C640.334 63.851 639.929 63.939 639.278 63.9742C638.75 63.9918 637.694 63.9918 636.638 63.9214C636.62 63.5694 636.444 63.0766 636.216 62.7422C637.324 62.8478 638.468 62.8654 638.908 62.8654C639.278 62.8654 639.489 62.8478 639.683 62.707C640.14 62.3198 640.528 60.9822 640.844 57.9902L640.862 57.8142ZM634.702 56.0542L636.075 56.1774C635.371 60.947 633.048 63.059 628.595 64.1502C628.454 63.851 628.102 63.2878 627.856 63.0238C632.115 62.2142 634.209 60.3134 634.702 56.0542ZM632.52 49.7886H641.056V50.9326H632.52V49.7886ZM640.739 49.7886H641.003L641.232 49.7358L642.041 50.2814C639.489 54.083 633.628 55.843 628.19 56.4766C628.102 56.1422 627.873 55.6142 627.662 55.315C632.889 54.8222 638.609 53.1678 640.739 49.9646V49.7886ZM632.502 51.1262C634.42 53.6078 638.68 54.787 643.766 55.0862C643.502 55.3854 643.185 55.8958 643.027 56.2654C637.888 55.843 633.628 54.4878 631.411 51.5838L632.502 51.1262ZM633.593 47.9582L634.966 48.2222C633.787 50.1406 631.956 52.0766 629.281 53.5726C629.105 53.2558 628.718 52.7806 628.454 52.587C630.936 51.3022 632.678 49.507 633.593 47.9582Z" fill="white"/>
<path opacity="0.8" d="M382.774 115.36V114.08H385.062V106L382.918 107.616L382.134 106.544L385.446 104.16H386.502V114.08H388.406V115.36H382.774ZM397.661 105.68H408.109V111.344H397.325V110.352H406.925V106.688H397.661V105.68ZM399.453 103.136H404.941V104.128H399.453V103.136ZM397.821 108.032H407.389V108.976H397.821V108.032ZM399.869 101.872L401.165 102.112C400.173 103.936 398.653 105.904 396.413 107.408C396.221 107.12 395.837 106.736 395.549 106.544C397.661 105.232 399.117 103.408 399.869 101.872ZM399.709 112.56H400.877V114.912C400.877 115.312 401.021 115.392 401.821 115.392C402.173 115.392 404.029 115.392 404.525 115.392C405.181 115.392 405.293 115.168 405.373 113.584C405.613 113.776 406.109 113.952 406.429 114.016C406.285 115.968 405.933 116.432 404.621 116.432C404.285 116.432 402.045 116.432 401.725 116.432C400.093 116.432 399.709 116.096 399.709 114.928V112.56ZM400.797 111.888L401.549 111.12C402.605 111.52 403.853 112.208 404.477 112.8L403.693 113.648C403.101 113.056 401.853 112.32 400.797 111.888ZM406.285 112.768L407.261 112.208C408.397 113.136 409.677 114.48 410.237 115.44L409.165 116.08C408.637 115.12 407.405 113.744 406.285 112.768ZM397.773 112.384L398.861 112.768C398.429 114.064 397.773 115.344 396.541 116.112L395.549 115.392C396.685 114.736 397.405 113.568 397.773 112.384ZM404.669 103.136H404.925L405.117 103.072L405.949 103.6C405.421 104.592 404.557 105.776 403.885 106.512C403.661 106.336 403.245 106.08 402.973 105.952C403.597 105.264 404.333 104.128 404.669 103.36V103.136ZM413.005 102.576H424.701V103.536H413.005V102.576ZM411.885 109.664H425.869V110.64H411.885V109.664ZM413.949 106.224H417.405V107.04H413.949V106.224ZM413.613 107.904H417.405V108.72H413.613V107.904ZM420.221 107.904H424.141V108.72H420.221V107.904ZM420.221 106.224H423.757V107.04H420.221V106.224ZM418.221 102.944H419.389V109.136H418.221V102.944ZM416.637 112.416H417.757V116.528H416.637V112.416ZM420.189 112.416H421.293V116.528H420.189V112.416ZM412.077 104.464H425.661V107.536H424.525V105.344H413.165V107.536H412.077V104.464ZM413.133 111.792H424.109V112.784H414.269V116.624H413.133V111.792ZM423.805 111.792H424.957V115.456C424.957 116 424.877 116.288 424.461 116.464C424.061 116.656 423.469 116.64 422.589 116.64C422.541 116.352 422.365 115.936 422.221 115.648C422.861 115.664 423.405 115.664 423.581 115.648C423.757 115.632 423.805 115.584 423.805 115.44V111.792ZM418.237 110.032L419.549 110.08C419.261 110.944 418.925 111.824 418.653 112.416L417.597 112.304C417.837 111.648 418.125 110.688 418.237 110.032ZM429.069 105.984H433.693V106.928H429.069V105.984ZM429.069 108.704H433.693V109.616H429.069V108.704ZM429.069 111.488H433.693V112.432H429.069V111.488ZM435.885 109.504H441.981V110.544H435.885V109.504ZM429.901 103.36H432.557V104.304H429.901V103.36ZM434.861 102.736H441.117V103.76H434.861V102.736ZM434.669 112.496H442.253V113.568H434.669V112.496ZM438.045 107.856H439.197V116.576H438.045V107.856ZM431.053 106.448H431.917V111.888H431.053V106.448ZM440.733 102.736H441.821C441.821 102.736 441.821 103.04 441.805 103.184C441.693 105.856 441.533 106.896 441.197 107.264C440.973 107.536 440.733 107.632 440.317 107.664C439.997 107.696 439.325 107.696 438.653 107.664C438.637 107.344 438.525 106.928 438.381 106.656C439.021 106.72 439.597 106.72 439.821 106.72C440.045 106.736 440.189 106.704 440.285 106.576C440.493 106.336 440.621 105.408 440.733 102.896V102.736ZM435.949 108L436.989 108.208C436.669 109.696 436.109 111.152 435.437 112.112C435.229 111.968 434.749 111.728 434.493 111.6C435.181 110.704 435.677 109.36 435.949 108ZM429.869 101.92L430.973 102.16C430.381 104.32 429.405 106.384 428.269 107.744C428.077 107.552 427.613 107.184 427.357 107.024C428.493 105.792 429.389 103.888 429.869 101.92ZM428.605 105.984H429.597V110.24C429.597 112.192 429.405 114.896 428.269 116.672C428.093 116.512 427.645 116.24 427.405 116.128C428.493 114.432 428.605 112.048 428.605 110.24V105.984ZM433.373 105.984H434.381V115.328C434.381 115.92 434.253 116.256 433.837 116.432C433.437 116.608 432.781 116.624 431.677 116.624C431.629 116.352 431.453 115.888 431.309 115.6C432.125 115.632 432.845 115.632 433.069 115.616C433.277 115.6 433.373 115.536 433.373 115.328V105.984ZM437.133 103.072H438.237C437.965 105.28 437.277 107.104 435.037 108.112C434.893 107.856 434.605 107.472 434.365 107.296C436.333 106.464 436.909 104.88 437.133 103.072ZM432.269 103.36H432.509L432.669 103.296L433.373 103.76C433.037 104.752 432.429 105.936 431.949 106.688C431.757 106.528 431.405 106.32 431.181 106.224C431.581 105.504 432.029 104.352 432.269 103.552V103.36ZM443.661 103.136L444.605 102.56C445.517 103.52 446.653 104.864 447.149 105.728L446.141 106.416C445.661 105.536 444.589 104.144 443.661 103.136ZM443.453 115.184C444.253 113.904 445.405 111.76 446.237 109.888L447.133 110.624C446.381 112.352 445.373 114.384 444.493 115.92L443.453 115.184ZM448.589 104.448H456.637V109.84H455.485V105.6H448.589V104.448ZM447.757 109.296H458.237V110.464H447.757V109.296ZM453.453 109.664C454.157 112.512 455.725 114.688 458.333 115.584C458.061 115.824 457.709 116.304 457.533 116.624C454.781 115.504 453.181 113.152 452.381 109.888L453.453 109.664ZM451.789 101.952H453.037V107.28C453.037 110.432 452.573 114.256 447.709 116.688C447.533 116.416 447.133 115.952 446.845 115.728C451.613 113.568 451.789 110.08 451.789 107.28V101.952ZM460.957 104.496H465.821V114.96H460.957V113.872H464.701V105.568H460.957V104.496ZM460.237 104.496H461.357V116.24H460.237V104.496ZM460.877 108.944H465.293V110.016H460.877V108.944ZM462.685 101.888L463.981 102.128C463.661 103.12 463.261 104.224 462.941 104.944L461.981 104.704C462.253 103.936 462.557 102.72 462.685 101.888ZM468.093 104.448H473.005V105.568H468.093V104.448ZM472.589 104.448H473.709C473.709 104.448 473.709 104.896 473.709 105.072C473.453 112.416 473.229 114.896 472.589 115.68C472.237 116.144 471.869 116.288 471.309 116.336C470.765 116.4 469.821 116.368 468.925 116.32C468.893 115.968 468.749 115.472 468.525 115.152C469.565 115.232 470.525 115.248 470.893 115.248C471.213 115.248 471.405 115.2 471.581 114.992C472.109 114.416 472.365 111.76 472.589 104.704V104.448ZM468.429 101.856L469.581 102.128C468.989 104.512 468.045 106.864 466.941 108.384C466.733 108.192 466.237 107.856 465.949 107.696C467.037 106.288 467.917 104.08 468.429 101.856ZM467.693 108.608L468.621 108.064C469.533 109.2 470.637 110.752 471.149 111.696L470.125 112.336C469.645 111.36 468.573 109.776 467.693 108.608ZM476.525 103.728H489.261V104.976H476.525V103.728ZM475.677 114.224H490.061V115.424H475.677V114.224ZM482.141 104.352H483.485V114.72H482.141V104.352ZM498.653 104.608H506.237V105.76H498.093L498.653 104.608ZM500.653 108.08H505.869V109.184H500.653V108.08ZM500.637 111.6H506.093V112.736H500.637V111.6ZM500.045 104.976H501.277V116.64H500.045V104.976ZM499.261 102.112L500.429 102.416C499.517 104.96 498.125 107.472 496.653 109.12C496.477 108.912 495.997 108.48 495.725 108.288C497.181 106.8 498.477 104.464 499.261 102.112ZM495.421 101.984L496.573 102.352C495.517 105.056 493.869 107.792 492.125 109.584C492.013 109.296 491.645 108.656 491.421 108.368C493.021 106.816 494.509 104.416 495.421 101.984ZM493.709 106.112L494.893 104.912L494.925 104.928V116.624H493.709V106.112ZM520.669 102.32L521.565 103.328C519.229 104.128 515.645 104.72 512.605 105.088C512.557 104.8 512.381 104.352 512.253 104.064C515.229 103.68 518.701 103.04 520.669 102.32ZM511.709 108.784H522.221V109.936H511.709V108.784ZM512.333 114.88H521.965V116.032H512.333V114.88ZM516.477 104.096H517.677V115.2H516.477V104.096ZM509.821 106.176L511.005 104.992L511.021 105.024V116.64H509.821V106.176ZM511.565 101.936L512.733 102.304C511.597 105.088 509.805 107.856 507.933 109.68C507.805 109.392 507.437 108.768 507.197 108.464C508.925 106.896 510.573 104.448 511.565 101.936ZM524.877 110.864H535.981V111.92H524.877V110.864ZM535.581 110.864H536.781C536.781 110.864 536.749 111.216 536.717 111.392C536.349 114.304 535.997 115.536 535.437 116.032C535.101 116.352 534.733 116.432 534.141 116.464C533.661 116.48 532.701 116.48 531.741 116.416C531.725 116.096 531.565 115.648 531.357 115.344C532.365 115.44 533.405 115.456 533.805 115.456C534.141 115.456 534.333 115.44 534.509 115.312C534.925 114.96 535.277 113.744 535.565 111.024L535.581 110.864ZM529.981 109.264L531.229 109.376C530.589 113.712 528.477 115.632 524.429 116.624C524.301 116.352 523.981 115.84 523.757 115.6C527.629 114.864 529.533 113.136 529.981 109.264ZM527.997 103.568H535.757V104.608H527.997V103.568ZM535.469 103.568H535.709L535.917 103.52L536.653 104.016C534.333 107.472 529.005 109.072 524.061 109.648C523.981 109.344 523.773 108.864 523.581 108.592C528.333 108.144 533.533 106.64 535.469 103.728V103.568ZM527.981 104.784C529.725 107.04 533.597 108.112 538.221 108.384C537.981 108.656 537.693 109.12 537.549 109.456C532.877 109.072 529.005 107.84 526.989 105.2L527.981 104.784ZM528.973 101.904L530.221 102.144C529.149 103.888 527.485 105.648 525.053 107.008C524.893 106.72 524.541 106.288 524.301 106.112C526.557 104.944 528.141 103.312 528.973 101.904ZM381.878 151.36C381.846 151.168 381.83 150.971 381.83 150.768C381.83 150.075 381.947 149.456 382.182 148.912C382.427 148.357 382.742 147.856 383.126 147.408C383.51 146.949 383.915 146.528 384.342 146.144C384.779 145.749 385.185 145.376 385.558 145.024C385.942 144.661 386.257 144.299 386.502 143.936C386.747 143.573 386.87 143.195 386.87 142.8C386.87 142.352 386.705 141.984 386.374 141.696C386.043 141.397 385.617 141.248 385.094 141.248C384.646 141.248 384.235 141.339 383.862 141.52C383.499 141.691 383.158 141.925 382.838 142.224L382.038 141.248C382.465 140.864 382.934 140.555 383.446 140.32C383.969 140.085 384.571 139.968 385.254 139.968C385.883 139.968 386.433 140.091 386.902 140.336C387.371 140.571 387.734 140.896 387.99 141.312C388.257 141.728 388.39 142.192 388.39 142.704C388.39 143.216 388.278 143.691 388.054 144.128C387.83 144.565 387.542 144.976 387.19 145.36C386.838 145.744 386.459 146.117 386.054 146.48C385.649 146.832 385.259 147.195 384.886 147.568C384.513 147.941 384.193 148.331 383.926 148.736C383.67 149.141 383.51 149.579 383.446 150.048H388.374V151.36H381.878ZM397.456 143.376H398.704V151.104C398.704 151.904 398.496 152.272 397.872 152.448C397.248 152.64 396.176 152.656 394.56 152.656C394.48 152.304 394.256 151.792 394.064 151.44C395.392 151.488 396.624 151.488 396.992 151.472C397.344 151.456 397.456 151.36 397.456 151.072V143.376ZM391.632 139.184H403.184V140.352H391.632V139.184ZM402.752 139.184H403.072L403.36 139.104L404.288 139.776C402.864 141.472 400.608 143.36 398.624 144.48C398.448 144.224 398.064 143.824 397.808 143.648C399.632 142.64 401.744 140.8 402.752 139.472V139.184ZM408.272 141.984H412.896V142.928H408.272V141.984ZM408.272 144.704H412.896V145.616H408.272V144.704ZM408.272 147.488H412.896V148.432H408.272V147.488ZM415.088 145.504H421.184V146.544H415.088V145.504ZM409.104 139.36H411.76V140.304H409.104V139.36ZM414.064 138.736H420.32V139.76H414.064V138.736ZM413.872 148.496H421.456V149.568H413.872V148.496ZM417.248 143.856H418.4V152.576H417.248V143.856ZM410.256 142.448H411.12V147.888H410.256V142.448ZM419.936 138.736H421.024C421.024 138.736 421.024 139.04 421.008 139.184C420.896 141.856 420.736 142.896 420.4 143.264C420.176 143.536 419.936 143.632 419.52 143.664C419.2 143.696 418.528 143.696 417.856 143.664C417.84 143.344 417.728 142.928 417.584 142.656C418.224 142.72 418.8 142.72 419.024 142.72C419.248 142.736 419.392 142.704 419.488 142.576C419.696 142.336 419.824 141.408 419.936 138.896V138.736ZM415.152 144L416.192 144.208C415.872 145.696 415.312 147.152 414.64 148.112C414.432 147.968 413.952 147.728 413.696 147.6C414.384 146.704 414.88 145.36 415.152 144ZM409.072 137.92L410.176 138.16C409.584 140.32 408.608 142.384 407.472 143.744C407.28 143.552 406.816 143.184 406.56 143.024C407.696 141.792 408.592 139.888 409.072 137.92ZM407.808 141.984H408.8V146.24C408.8 148.192 408.608 150.896 407.472 152.672C407.296 152.512 406.848 152.24 406.608 152.128C407.696 150.432 407.808 148.048 407.808 146.24V141.984ZM412.576 141.984H413.584V151.328C413.584 151.92 413.456 152.256 413.04 152.432C412.64 152.608 411.984 152.624 410.88 152.624C410.832 152.352 410.656 151.888 410.512 151.6C411.328 151.632 412.048 151.632 412.272 151.616C412.48 151.6 412.576 151.536 412.576 151.328V141.984ZM416.336 139.072H417.44C417.168 141.28 416.48 143.104 414.24 144.112C414.096 143.856 413.808 143.472 413.568 143.296C415.536 142.464 416.112 140.88 416.336 139.072ZM411.472 139.36H411.712L411.872 139.296L412.576 139.76C412.24 140.752 411.632 141.936 411.152 142.688C410.96 142.528 410.608 142.32 410.384 142.224C410.784 141.504 411.232 140.352 411.472 139.552V139.36ZM425.472 143.664H434.768V144.784H425.472V143.664ZM425.472 147.136H434.768V148.256H425.472V147.136ZM425.472 150.64H434.768V151.76H425.472V150.64ZM424.656 140.112H435.696V152.576H434.448V141.264H425.872V152.656H424.656V140.112ZM429.344 137.904L430.736 138.08C430.384 139.04 429.968 140.08 429.616 140.768L428.544 140.56C428.832 139.808 429.184 138.688 429.344 137.904ZM441.12 144.096H450.56V145.28H441.12V144.096ZM440.304 138.88H451.328V146.288H450.064V140.096H440.304V138.88ZM440.496 144.096H441.728V150.064C441.728 150.912 442.096 151.104 443.856 151.104C444.704 151.104 448.896 151.104 449.984 151.104C451.696 151.104 451.952 150.64 452.144 148.176C452.48 148.384 453.008 148.592 453.36 148.672C453.088 151.536 452.56 152.304 449.968 152.304C449.36 152.304 444.496 152.304 443.904 152.304C441.328 152.304 440.496 151.888 440.496 150.08V144.096ZM456.16 140.496H461.024V150.96H456.16V149.872H459.904V141.568H456.16V140.496ZM455.44 140.496H456.56V152.24H455.44V140.496ZM456.08 144.944H460.496V146.016H456.08V144.944ZM457.888 137.888L459.184 138.128C458.864 139.12 458.464 140.224 458.144 140.944L457.184 140.704C457.456 139.936 457.76 138.72 457.888 137.888ZM463.296 140.448H468.208V141.568H463.296V140.448ZM467.792 140.448H468.912C468.912 140.448 468.912 140.896 468.912 141.072C468.656 148.416 468.432 150.896 467.792 151.68C467.44 152.144 467.072 152.288 466.512 152.336C465.968 152.4 465.024 152.368 464.128 152.32C464.096 151.968 463.952 151.472 463.728 151.152C464.768 151.232 465.728 151.248 466.096 151.248C466.416 151.248 466.608 151.2 466.784 150.992C467.312 150.416 467.568 147.76 467.792 140.704V140.448ZM463.632 137.856L464.784 138.128C464.192 140.512 463.248 142.864 462.144 144.384C461.936 144.192 461.44 143.856 461.152 143.696C462.24 142.288 463.12 140.08 463.632 137.856ZM462.896 144.608L463.824 144.064C464.736 145.2 465.84 146.752 466.352 147.696L465.328 148.336C464.848 147.36 463.776 145.776 462.896 144.608ZM471.728 139.728H484.464V140.976H471.728V139.728ZM470.88 150.224H485.264V151.424H470.88V150.224ZM477.344 140.352H478.688V150.72H477.344V140.352ZM493.856 140.608H501.44V141.76H493.296L493.856 140.608ZM495.856 144.08H501.072V145.184H495.856V144.08ZM495.84 147.6H501.296V148.736H495.84V147.6ZM495.248 140.976H496.48V152.64H495.248V140.976ZM494.464 138.112L495.632 138.416C494.72 140.96 493.328 143.472 491.856 145.12C491.68 144.912 491.2 144.48 490.928 144.288C492.384 142.8 493.68 140.464 494.464 138.112ZM490.624 137.984L491.776 138.352C490.72 141.056 489.072 143.792 487.328 145.584C487.216 145.296 486.848 144.656 486.624 144.368C488.224 142.816 489.712 140.416 490.624 137.984ZM488.912 142.112L490.096 140.912L490.128 140.928V152.624H488.912V142.112ZM507.488 140.832H516.848V141.984H507.488V140.832ZM509.744 138.272H510.928V143.872C510.928 145.952 510.608 148.576 508.496 150.176C508.336 149.952 507.872 149.488 507.616 149.328C509.536 147.856 509.744 145.712 509.744 143.856V138.272ZM507.376 144.864H517.152V146H507.376V144.864ZM506.24 143.712V149.904H505.072V144.848H502.848V143.712H506.24ZM505.632 149.312C506.176 149.312 506.544 149.792 507.424 150.352C508.464 150.992 509.808 151.104 511.632 151.104C513.52 151.104 515.92 150.976 517.472 150.8C517.344 151.136 517.152 151.712 517.12 152.048C515.984 152.128 513.12 152.224 511.6 152.224C509.616 152.224 508.272 152.032 507.152 151.344C506.48 150.912 505.984 150.384 505.616 150.384C505.072 150.384 504.288 151.328 503.472 152.416L502.672 151.328C503.76 150.16 504.832 149.312 505.632 149.312ZM503.344 138.928L504.208 138.256C505.104 139.04 506.192 140.144 506.72 140.864L505.792 141.616C505.312 140.88 504.24 139.728 503.344 138.928ZM513.584 138.256H514.768V150.096H513.584V138.256ZM521.664 142.416H533.04V143.408H521.664V142.416ZM521.888 147.088H531.04V148.08H521.888V147.088ZM524.24 141.024H525.376V145.104H529.28V141.024H530.448V146.064H524.24V141.024ZM530.72 147.088H530.96L531.184 147.024L531.936 147.44C530.176 150.768 526.08 152.112 521.776 152.656C521.68 152.352 521.456 151.904 521.264 151.632C525.312 151.248 529.264 150 530.72 147.264V147.088ZM524.736 147.92C526.256 150.048 529.568 151.248 533.44 151.648C533.184 151.904 532.88 152.368 532.736 152.672C528.768 152.16 525.44 150.8 523.696 148.304L524.736 147.92ZM525.904 137.936H527.136V140.112H525.904V137.936ZM520.576 139.52H533.152V140.608H520.576V139.52ZM519.984 139.52H521.136V144.128C521.136 146.624 520.928 150.24 519.552 152.672C519.344 152.464 518.832 152.128 518.56 152C519.872 149.712 519.984 146.464 519.984 144.128V139.52Z" fill="#464F6B"/>
<path opacity="0.8" d="M84.574 115.36V114.08H86.862V106L84.718 107.616L83.934 106.544L87.246 104.16H88.302V114.08H90.206V115.36H84.574ZM96.5678 106.88V108.176H103.208V106.88H96.5678ZM95.4318 106.064H104.392V108.976H95.4318V106.064ZM93.7198 111.6H106.12V112.48H93.7198V111.6ZM92.7918 113.536H106.952V114.416H92.7918V113.536ZM99.2238 110.256H100.424V115.424C100.424 116.08 100.232 116.352 99.7038 116.512C99.1598 116.656 98.2798 116.656 96.8238 116.656C96.7598 116.368 96.5678 115.984 96.4078 115.712C97.5118 115.744 98.5678 115.744 98.8558 115.728C99.1278 115.712 99.2238 115.648 99.2238 115.408V110.256ZM104.36 109.296L105.128 110.048C102.424 110.528 98.0398 110.752 94.4558 110.752C94.4398 110.512 94.3278 110.16 94.2318 109.936C97.7518 109.904 102.072 109.696 104.36 109.296ZM99.2078 101.92H100.424V104.672H99.2078V101.92ZM93.1278 104.064H106.664V107.264H105.48V105.088H94.2638V107.264H93.1278V104.064ZM94.6958 102.432L95.7518 102C96.2318 102.528 96.7438 103.248 96.9998 103.712L95.8958 104.224C95.6718 103.744 95.1758 102.976 94.6958 102.432ZM104.024 102.016L105.24 102.432C104.696 103.088 104.104 103.728 103.624 104.16L102.664 103.776C103.112 103.296 103.72 102.528 104.024 102.016ZM114.616 102.656H122.712V106.368H114.616V105.36H121.544V103.664H114.616V102.656ZM113.976 102.656H115.08V107.36C115.08 110.032 114.856 113.936 113.256 116.56C113.064 116.352 112.584 116.016 112.344 115.888C113.848 113.392 113.976 109.904 113.976 107.36V102.656ZM114.76 107.456H122.984V108.432H114.76V107.456ZM117.512 107.712L118.648 108C118.168 108.96 117.592 110.128 117.112 110.864L116.28 110.592C116.712 109.808 117.224 108.56 117.512 107.712ZM115.096 110.336C116.824 110.304 119.448 110.208 121.992 110.112L121.976 110.992C119.544 111.136 117.016 111.248 115.208 111.328L115.096 110.336ZM119.928 109.088L120.68 108.656C121.592 109.44 122.664 110.528 123.16 111.264L122.344 111.776C121.864 111.04 120.824 109.888 119.928 109.088ZM115.288 112.64H122.392V113.568H115.288V112.64ZM114.456 115.216H123.24V116.176H114.456V115.216ZM118.248 111.088H119.32V115.68H118.248V111.088ZM108.296 110.224C109.544 109.872 111.416 109.296 113.24 108.704L113.4 109.808C111.736 110.384 109.976 110.96 108.616 111.392L108.296 110.224ZM108.52 105.152H113.384V106.272H108.52V105.152ZM110.536 101.936H111.656V115.248C111.656 115.92 111.496 116.24 111.096 116.432C110.728 116.624 110.104 116.656 109.096 116.656C109.048 116.368 108.904 115.872 108.744 115.536C109.448 115.552 110.056 115.552 110.248 115.536C110.44 115.536 110.536 115.488 110.536 115.248V101.936ZM124.696 115.152H139.048V116.144H124.696V115.152ZM124.776 104.768H138.952V105.76H124.776V104.768ZM125.88 112.816H138.024V113.776H125.88V112.816ZM131.192 103.152H132.392V115.632H131.192V103.152ZM136.76 102.016L137.4 102.944C134.536 103.472 129.976 103.744 126.232 103.824C126.232 103.536 126.088 103.12 125.976 102.864C129.704 102.768 134.232 102.48 136.76 102.016ZM127.56 109.6V110.832H136.216V109.6H127.56ZM127.56 107.584V108.8H136.216V107.584H127.56ZM126.392 106.72H137.432V111.696H126.392V106.72ZM140.584 110.672H155.144V111.68H140.584V110.672ZM140.968 102.624H154.744V103.68H140.968V102.624ZM146.136 108.992L147.304 109.312C146.264 110.976 144.792 113.072 143.768 114.384L142.632 114C143.656 112.704 145.144 110.56 146.136 108.992ZM150.936 111.024L152.088 111.36C150.68 114.88 147.272 116.192 141.272 116.64C141.192 116.288 141 115.856 140.808 115.584C146.52 115.28 149.656 114.144 150.936 111.024ZM143.496 113.84L144.104 112.96C148.056 113.664 152.168 114.736 154.648 115.712L153.928 116.688C151.48 115.68 147.56 114.592 143.496 113.84ZM145.336 103.024H146.472V108.608H145.336V103.024ZM149.064 103.024H150.2V108.608H149.064V103.024ZM142.888 106.032V108.208H152.872V106.032H142.888ZM141.768 105.056H154.072V109.2H141.768V105.056ZM156.824 114.624H170.936V115.824H156.824V114.624ZM161.304 102.128H162.52V115.12H161.304V102.128ZM165.224 102.128H166.44V115.2H165.224V102.128ZM169.512 105.648L170.616 106.16C169.848 108.016 168.76 110.224 167.848 111.728L166.856 111.2C167.752 109.744 168.888 107.424 169.512 105.648ZM157.176 105.936L158.28 105.6C159.128 107.376 160.12 109.744 160.552 111.152L159.352 111.6C158.968 110.176 158.008 107.744 157.176 105.936ZM173.88 110.864H184.984V111.92H173.88V110.864ZM184.584 110.864H185.784C185.784 110.864 185.752 111.216 185.72 111.392C185.352 114.304 185 115.536 184.44 116.032C184.104 116.352 183.736 116.432 183.144 116.464C182.664 116.48 181.704 116.48 180.744 116.416C180.728 116.096 180.568 115.648 180.36 115.344C181.368 115.44 182.408 115.456 182.808 115.456C183.144 115.456 183.336 115.44 183.512 115.312C183.928 114.96 184.28 113.744 184.568 111.024L184.584 110.864ZM178.984 109.264L180.232 109.376C179.592 113.712 177.48 115.632 173.432 116.624C173.304 116.352 172.984 115.84 172.76 115.6C176.632 114.864 178.536 113.136 178.984 109.264ZM177 103.568H184.76V104.608H177V103.568ZM184.472 103.568H184.712L184.92 103.52L185.656 104.016C183.336 107.472 178.008 109.072 173.064 109.648C172.984 109.344 172.776 108.864 172.584 108.592C177.336 108.144 182.536 106.64 184.472 103.728V103.568ZM176.984 104.784C178.728 107.04 182.6 108.112 187.224 108.384C186.984 108.656 186.696 109.12 186.552 109.456C181.88 109.072 178.008 107.84 175.992 105.2L176.984 104.784ZM177.976 101.904L179.224 102.144C178.152 103.888 176.488 105.648 174.056 107.008C173.896 106.72 173.544 106.288 173.304 106.112C175.56 104.944 177.144 103.312 177.976 101.904ZM188.488 110.464H196.344V111.472H188.488V110.464ZM188.584 104.88H196.296V105.856H188.584V104.88ZM191.464 109.088L192.584 109.328C191.864 110.896 190.856 112.848 190.12 114.112L189.064 113.744C189.784 112.528 190.792 110.56 191.464 109.088ZM193.864 111.056L194.984 111.2C194.44 114.32 192.76 115.856 189.064 116.64C188.984 116.32 188.744 115.888 188.52 115.648C191.864 115.088 193.368 113.776 193.864 111.056ZM194.872 102.24L195.896 102.688C195.432 103.424 194.904 104.224 194.456 104.768L193.656 104.368C194.056 103.792 194.584 102.864 194.872 102.24ZM191.896 101.92H193V109.28H191.896V101.92ZM189.176 102.688L190.088 102.304C190.536 102.944 190.968 103.792 191.128 104.368L190.184 104.8C190.04 104.224 189.624 103.344 189.176 102.688ZM191.912 105.312L192.728 105.792C191.944 107.136 190.44 108.56 189.064 109.312C188.92 109.04 188.632 108.64 188.408 108.4C189.736 107.824 191.208 106.544 191.912 105.312ZM192.872 105.872C193.448 106.176 195.4 107.408 195.864 107.744L195.208 108.624C194.632 108.08 192.968 106.832 192.296 106.384L192.872 105.872ZM197.512 104.88H203.208V106H197.512V104.88ZM197.912 101.92L199.128 102.096C198.6 105.232 197.656 108.096 196.248 109.968C196.056 109.744 195.56 109.344 195.272 109.152C196.632 107.456 197.464 104.752 197.912 101.92ZM201.064 105.52L202.28 105.648C201.512 111.168 199.816 114.608 195.784 116.688C195.656 116.4 195.304 115.872 195.064 115.616C198.872 113.824 200.408 110.592 201.064 105.52ZM198.152 105.872C198.856 110.272 200.392 114.048 203.368 115.616C203.08 115.856 202.696 116.32 202.52 116.64C199.384 114.8 197.864 110.896 197.064 106.048L198.152 105.872ZM190.024 113.52L190.664 112.704C192.584 113.44 194.568 114.496 195.72 115.376L194.888 116.24C193.784 115.344 191.88 114.272 190.024 113.52ZM210.744 102.624H218.632V106.768H210.776V105.728H217.48V103.68H210.744V102.624ZM210.184 102.624H211.352V107.472C211.352 110.16 211.112 114.064 209.352 116.64C209.144 116.432 208.648 116.08 208.36 115.968C210.024 113.504 210.184 110.016 210.184 107.472V102.624ZM210.824 108.528H219.176V109.584H210.824V108.528ZM212.104 115.008H218.024V116H212.104V115.008ZM214.456 106.64H215.608V112.016H214.456V106.64ZM211.592 111.568H218.68V116.592H217.576V112.592H212.664V116.656H211.592V111.568ZM204.328 110.432C205.576 110.08 207.48 109.504 209.32 108.912L209.48 110.016C207.784 110.576 206.008 111.152 204.632 111.6L204.328 110.432ZM204.52 105.152H209.464V106.272H204.52V105.152ZM206.536 101.936H207.64V115.152C207.64 115.808 207.496 116.128 207.096 116.32C206.728 116.512 206.104 116.544 205.096 116.544C205.048 116.256 204.904 115.76 204.744 115.424C205.448 115.44 206.056 115.44 206.248 115.44C206.44 115.44 206.536 115.376 206.536 115.136V101.936ZM83.678 151.36C83.646 151.168 83.63 150.971 83.63 150.768C83.63 150.075 83.7474 149.456 83.982 148.912C84.2274 148.357 84.542 147.856 84.926 147.408C85.31 146.949 85.7154 146.528 86.142 146.144C86.5794 145.749 86.9847 145.376 87.358 145.024C87.742 144.661 88.0567 144.299 88.302 143.936C88.5474 143.573 88.67 143.195 88.67 142.8C88.67 142.352 88.5047 141.984 88.174 141.696C87.8434 141.397 87.4167 141.248 86.894 141.248C86.446 141.248 86.0354 141.339 85.662 141.52C85.2994 141.691 84.958 141.925 84.638 142.224L83.838 141.248C84.2647 140.864 84.734 140.555 85.246 140.32C85.7687 140.085 86.3714 139.968 87.054 139.968C87.6834 139.968 88.2327 140.091 88.702 140.336C89.1714 140.571 89.534 140.896 89.79 141.312C90.0567 141.728 90.19 142.192 90.19 142.704C90.19 143.216 90.078 143.691 89.854 144.128C89.63 144.565 89.342 144.976 88.99 145.36C88.638 145.744 88.2594 146.117 87.854 146.48C87.4487 146.832 87.0594 147.195 86.686 147.568C86.3127 147.941 85.9927 148.331 85.726 148.736C85.47 149.141 85.31 149.579 85.246 150.048H90.174V151.36H83.678ZM99.2558 143.376H100.504V151.104C100.504 151.904 100.296 152.272 99.6718 152.448C99.0478 152.64 97.9758 152.656 96.3598 152.656C96.2798 152.304 96.0558 151.792 95.8638 151.44C97.1918 151.488 98.4238 151.488 98.7918 151.472C99.1438 151.456 99.2558 151.36 99.2558 151.072V143.376ZM93.4318 139.184H104.984V140.352H93.4318V139.184ZM104.552 139.184H104.872L105.16 139.104L106.088 139.776C104.664 141.472 102.408 143.36 100.424 144.48C100.248 144.224 99.8638 143.824 99.6078 143.648C101.432 142.64 103.544 140.8 104.552 139.472V139.184ZM110.072 141.984H114.696V142.928H110.072V141.984ZM110.072 144.704H114.696V145.616H110.072V144.704ZM110.072 147.488H114.696V148.432H110.072V147.488ZM116.888 145.504H122.984V146.544H116.888V145.504ZM110.904 139.36H113.56V140.304H110.904V139.36ZM115.864 138.736H122.12V139.76H115.864V138.736ZM115.672 148.496H123.256V149.568H115.672V148.496ZM119.048 143.856H120.2V152.576H119.048V143.856ZM112.056 142.448H112.92V147.888H112.056V142.448ZM121.736 138.736H122.824C122.824 138.736 122.824 139.04 122.808 139.184C122.696 141.856 122.536 142.896 122.2 143.264C121.976 143.536 121.736 143.632 121.32 143.664C121 143.696 120.328 143.696 119.656 143.664C119.64 143.344 119.528 142.928 119.384 142.656C120.024 142.72 120.6 142.72 120.824 142.72C121.048 142.736 121.192 142.704 121.288 142.576C121.496 142.336 121.624 141.408 121.736 138.896V138.736ZM116.952 144L117.992 144.208C117.672 145.696 117.112 147.152 116.44 148.112C116.232 147.968 115.752 147.728 115.496 147.6C116.184 146.704 116.68 145.36 116.952 144ZM110.872 137.92L111.976 138.16C111.384 140.32 110.408 142.384 109.272 143.744C109.08 143.552 108.616 143.184 108.36 143.024C109.496 141.792 110.392 139.888 110.872 137.92ZM109.608 141.984H110.6V146.24C110.6 148.192 110.408 150.896 109.272 152.672C109.096 152.512 108.648 152.24 108.408 152.128C109.496 150.432 109.608 148.048 109.608 146.24V141.984ZM114.376 141.984H115.384V151.328C115.384 151.92 115.256 152.256 114.84 152.432C114.44 152.608 113.784 152.624 112.68 152.624C112.632 152.352 112.456 151.888 112.312 151.6C113.128 151.632 113.848 151.632 114.072 151.616C114.28 151.6 114.376 151.536 114.376 151.328V141.984ZM118.136 139.072H119.24C118.968 141.28 118.28 143.104 116.04 144.112C115.896 143.856 115.608 143.472 115.368 143.296C117.336 142.464 117.912 140.88 118.136 139.072ZM113.272 139.36H113.512L113.672 139.296L114.376 139.76C114.04 140.752 113.432 141.936 112.952 142.688C112.76 142.528 112.408 142.32 112.184 142.224C112.584 141.504 113.032 140.352 113.272 139.552V139.36ZM128.136 139.696V141.504H135.608V139.696H128.136ZM126.888 138.64H136.92V142.56H126.888V138.64ZM131.144 146.128H132.424V147.632C132.424 149.312 131.688 151.376 125.688 152.704C125.544 152.448 125.192 151.968 124.904 151.712C130.68 150.592 131.144 148.88 131.144 147.6V146.128ZM132.328 150.336L132.92 149.456C134.824 150.064 137.448 151.024 138.84 151.696L138.232 152.704C136.904 152.032 134.28 150.992 132.328 150.336ZM126.328 144H137.544V149.776H136.264V145.12H127.56V149.888H126.328V144ZM141.528 139.728H154.264V140.976H141.528V139.728ZM140.68 150.224H155.064V151.424H140.68V150.224ZM147.144 140.352H148.488V150.72H147.144V140.352ZM157.528 139.728H170.264V140.976H157.528V139.728ZM156.68 150.224H171.064V151.424H156.68V150.224ZM163.144 140.352H164.488V150.72H163.144V140.352ZM179.656 140.608H187.24V141.76H179.096L179.656 140.608ZM181.656 144.08H186.872V145.184H181.656V144.08ZM181.64 147.6H187.096V148.736H181.64V147.6ZM181.048 140.976H182.28V152.64H181.048V140.976ZM180.264 138.112L181.432 138.416C180.52 140.96 179.128 143.472 177.656 145.12C177.48 144.912 177 144.48 176.728 144.288C178.184 142.8 179.48 140.464 180.264 138.112ZM176.424 137.984L177.576 138.352C176.52 141.056 174.872 143.792 173.128 145.584C173.016 145.296 172.648 144.656 172.424 144.368C174.024 142.816 175.512 140.416 176.424 137.984ZM174.712 142.112L175.896 140.912L175.928 140.928V152.624H174.712V142.112ZM193.288 140.832H202.648V141.984H193.288V140.832ZM195.544 138.272H196.728V143.872C196.728 145.952 196.408 148.576 194.296 150.176C194.136 149.952 193.672 149.488 193.416 149.328C195.336 147.856 195.544 145.712 195.544 143.856V138.272ZM193.176 144.864H202.952V146H193.176V144.864ZM192.04 143.712V149.904H190.872V144.848H188.648V143.712H192.04ZM191.432 149.312C191.976 149.312 192.344 149.792 193.224 150.352C194.264 150.992 195.608 151.104 197.432 151.104C199.32 151.104 201.72 150.976 203.272 150.8C203.144 151.136 202.952 151.712 202.92 152.048C201.784 152.128 198.92 152.224 197.4 152.224C195.416 152.224 194.072 152.032 192.952 151.344C192.28 150.912 191.784 150.384 191.416 150.384C190.872 150.384 190.088 151.328 189.272 152.416L188.472 151.328C189.56 150.16 190.632 149.312 191.432 149.312ZM189.144 138.928L190.008 138.256C190.904 139.04 191.992 140.144 192.52 140.864L191.592 141.616C191.112 140.88 190.04 139.728 189.144 138.928ZM199.384 138.256H200.568V150.096H199.384V138.256ZM207.464 142.416H218.84V143.408H207.464V142.416ZM207.688 147.088H216.84V148.08H207.688V147.088ZM210.04 141.024H211.176V145.104H215.08V141.024H216.248V146.064H210.04V141.024ZM216.52 147.088H216.76L216.984 147.024L217.736 147.44C215.976 150.768 211.88 152.112 207.576 152.656C207.48 152.352 207.256 151.904 207.064 151.632C211.112 151.248 215.064 150 216.52 147.264V147.088ZM210.536 147.92C212.056 150.048 215.368 151.248 219.24 151.648C218.984 151.904 218.68 152.368 218.536 152.672C214.568 152.16 211.24 150.8 209.496 148.304L210.536 147.92ZM211.704 137.936H212.936V140.112H211.704V137.936ZM206.376 139.52H218.952V140.608H206.376V139.52ZM205.784 139.52H206.936V144.128C206.936 146.624 206.728 150.24 205.352 152.672C205.144 152.464 204.632 152.128 204.36 152C205.672 149.712 205.784 146.464 205.784 144.128V139.52ZM86.414 187.552C85.7207 187.552 85.118 187.461 84.606 187.28C84.094 187.088 83.6567 186.859 83.294 186.592L83.95 185.392C84.2487 185.616 84.5954 185.813 84.99 185.984C85.3847 186.155 85.8647 186.24 86.43 186.24C87.134 186.24 87.6887 186.053 88.094 185.68C88.51 185.307 88.718 184.843 88.718 184.288C88.718 183.893 88.6114 183.536 88.398 183.216C88.1847 182.885 87.854 182.619 87.406 182.416C86.9687 182.213 86.398 182.112 85.694 182.112H84.798V180.944H85.63C86.2594 180.944 86.7767 180.848 87.182 180.656C87.598 180.464 87.9074 180.213 88.11 179.904C88.3127 179.595 88.414 179.269 88.414 178.928C88.414 178.427 88.222 178.021 87.838 177.712C87.4647 177.403 87.0007 177.248 86.446 177.248C85.9447 177.248 85.4967 177.333 85.102 177.504C84.718 177.664 84.4034 177.845 84.158 178.048L83.566 176.912C83.886 176.699 84.2967 176.491 84.798 176.288C85.2994 176.075 85.886 175.968 86.558 175.968C87.262 175.968 87.8594 176.096 88.35 176.352C88.8407 176.608 89.214 176.949 89.47 177.376C89.7367 177.792 89.87 178.245 89.87 178.736C89.87 179.365 89.71 179.893 89.39 180.32C89.0807 180.747 88.638 181.099 88.062 181.376C88.734 181.632 89.2567 182.011 89.63 182.512C90.014 183.003 90.206 183.579 90.206 184.24C90.206 184.795 90.0674 185.328 89.79 185.84C89.5234 186.341 89.1074 186.752 88.542 187.072C87.9874 187.392 87.278 187.552 86.414 187.552ZM95.6238 176.464H99.1278V177.584H95.6238V176.464ZM98.7598 176.464H98.9998L99.2238 176.432L100.024 176.64C99.2718 183.2 96.8718 186.864 93.3838 188.672C93.1758 188.4 92.7118 187.92 92.4078 187.728C95.8478 186.064 98.1198 182.768 98.7598 176.752V176.464ZM95.3678 178.48C96.8718 185.808 100.616 186.912 104.52 186.912C105.016 186.912 106.664 186.912 107.288 186.896C107.096 187.2 106.872 187.808 106.808 188.16H104.456C100.024 188.16 96.0398 186.832 94.4078 178.816L95.3678 178.48ZM95.3838 173.984L96.6478 174.288C96.0718 177.552 95.0318 180.688 93.6718 182.496C93.4478 182.304 92.9998 181.984 92.6958 181.824C93.9598 180.144 94.9358 177.12 95.3838 173.984ZM102.424 178.416L103.384 177.872C104.616 179.2 106.12 180.992 106.84 182.144L105.8 182.8C105.128 181.648 103.64 179.776 102.424 178.416ZM101.704 173.952H102.984V185.728H101.704V173.952ZM115.464 178.736V180.8H121.416V178.736H115.464ZM115.464 175.712V177.744H121.416V175.712H115.464ZM114.376 174.672H122.568V181.84H114.376V174.672ZM114.168 183.712H122.792V184.816H114.168V183.712ZM112.936 187.024H123.32V188.112H112.936V187.024ZM108.584 175.008H113.576V176.144H108.584V175.008ZM108.76 179.632H113.352V180.768H108.76V179.632ZM108.424 185.76C109.72 185.408 111.64 184.784 113.496 184.16L113.704 185.312C111.96 185.904 110.136 186.512 108.712 186.992L108.424 185.76ZM110.584 175.456H111.736V185.376L110.584 185.6V175.456ZM117.912 175.168H118.968V181.328H119.048V187.52H117.832V181.328H117.912V175.168ZM126.664 177.68H137.112V183.344H126.328V182.352H135.928V178.688H126.664V177.68ZM128.456 175.136H133.944V176.128H128.456V175.136ZM126.824 180.032H136.392V180.976H126.824V180.032ZM128.872 173.872L130.168 174.112C129.176 175.936 127.656 177.904 125.416 179.408C125.224 179.12 124.84 178.736 124.552 178.544C126.664 177.232 128.12 175.408 128.872 173.872ZM128.712 184.56H129.88V186.912C129.88 187.312 130.024 187.392 130.824 187.392C131.176 187.392 133.032 187.392 133.528 187.392C134.184 187.392 134.296 187.168 134.376 185.584C134.616 185.776 135.112 185.952 135.432 186.016C135.288 187.968 134.936 188.432 133.624 188.432C133.288 188.432 131.048 188.432 130.728 188.432C129.096 188.432 128.712 188.096 128.712 186.928V184.56ZM129.8 183.888L130.552 183.12C131.608 183.52 132.856 184.208 133.48 184.8L132.696 185.648C132.104 185.056 130.856 184.32 129.8 183.888ZM135.288 184.768L136.264 184.208C137.4 185.136 138.68 186.48 139.24 187.44L138.168 188.08C137.64 187.12 136.408 185.744 135.288 184.768ZM126.776 184.384L127.864 184.768C127.432 186.064 126.776 187.344 125.544 188.112L124.552 187.392C125.688 186.736 126.408 185.568 126.776 184.384ZM133.672 175.136H133.928L134.12 175.072L134.952 175.6C134.424 176.592 133.56 177.776 132.888 178.512C132.664 178.336 132.248 178.08 131.976 177.952C132.6 177.264 133.336 176.128 133.672 175.36V175.136ZM142.008 174.576H153.704V175.536H142.008V174.576ZM140.888 181.664H154.872V182.64H140.888V181.664ZM142.952 178.224H146.408V179.04H142.952V178.224ZM142.616 179.904H146.408V180.72H142.616V179.904ZM149.224 179.904H153.144V180.72H149.224V179.904ZM149.224 178.224H152.76V179.04H149.224V178.224ZM147.224 174.944H148.392V181.136H147.224V174.944ZM145.64 184.416H146.76V188.528H145.64V184.416ZM149.192 184.416H150.296V188.528H149.192V184.416ZM141.08 176.464H154.664V179.536H153.528V177.344H142.168V179.536H141.08V176.464ZM142.136 183.792H153.112V184.784H143.272V188.624H142.136V183.792ZM152.808 183.792H153.96V187.456C153.96 188 153.88 188.288 153.464 188.464C153.064 188.656 152.472 188.64 151.592 188.64C151.544 188.352 151.368 187.936 151.224 187.648C151.864 187.664 152.408 187.664 152.584 187.648C152.76 187.632 152.808 187.584 152.808 187.44V183.792ZM147.24 182.032L148.552 182.08C148.264 182.944 147.928 183.824 147.656 184.416L146.6 184.304C146.84 183.648 147.128 182.688 147.24 182.032ZM158.072 177.984H162.696V178.928H158.072V177.984ZM158.072 180.704H162.696V181.616H158.072V180.704ZM158.072 183.488H162.696V184.432H158.072V183.488ZM164.888 181.504H170.984V182.544H164.888V181.504ZM158.904 175.36H161.56V176.304H158.904V175.36ZM163.864 174.736H170.12V175.76H163.864V174.736ZM163.672 184.496H171.256V185.568H163.672V184.496ZM167.048 179.856H168.2V188.576H167.048V179.856ZM160.056 178.448H160.92V183.888H160.056V178.448ZM169.736 174.736H170.824C170.824 174.736 170.824 175.04 170.808 175.184C170.696 177.856 170.536 178.896 170.2 179.264C169.976 179.536 169.736 179.632 169.32 179.664C169 179.696 168.328 179.696 167.656 179.664C167.64 179.344 167.528 178.928 167.384 178.656C168.024 178.72 168.6 178.72 168.824 178.72C169.048 178.736 169.192 178.704 169.288 178.576C169.496 178.336 169.624 177.408 169.736 174.896V174.736ZM164.952 180L165.992 180.208C165.672 181.696 165.112 183.152 164.44 184.112C164.232 183.968 163.752 183.728 163.496 183.6C164.184 182.704 164.68 181.36 164.952 180ZM158.872 173.92L159.976 174.16C159.384 176.32 158.408 178.384 157.272 179.744C157.08 179.552 156.616 179.184 156.36 179.024C157.496 177.792 158.392 175.888 158.872 173.92ZM157.608 177.984H158.6V182.24C158.6 184.192 158.408 186.896 157.272 188.672C157.096 188.512 156.648 188.24 156.408 188.128C157.496 186.432 157.608 184.048 157.608 182.24V177.984ZM162.376 177.984H163.384V187.328C163.384 187.92 163.256 188.256 162.84 188.432C162.44 188.608 161.784 188.624 160.68 188.624C160.632 188.352 160.456 187.888 160.312 187.6C161.128 187.632 161.848 187.632 162.072 187.616C162.28 187.6 162.376 187.536 162.376 187.328V177.984ZM166.136 175.072H167.24C166.968 177.28 166.28 179.104 164.04 180.112C163.896 179.856 163.608 179.472 163.368 179.296C165.336 178.464 165.912 176.88 166.136 175.072ZM161.272 175.36H161.512L161.672 175.296L162.376 175.76C162.04 176.752 161.432 177.936 160.952 178.688C160.76 178.528 160.408 178.32 160.184 178.224C160.584 177.504 161.032 176.352 161.272 175.552V175.36ZM172.664 175.136L173.608 174.56C174.52 175.52 175.656 176.864 176.152 177.728L175.144 178.416C174.664 177.536 173.592 176.144 172.664 175.136ZM172.456 187.184C173.256 185.904 174.408 183.76 175.24 181.888L176.136 182.624C175.384 184.352 174.376 186.384 173.496 187.92L172.456 187.184ZM177.592 176.448H185.64V181.84H184.488V177.6H177.592V176.448ZM176.76 181.296H187.24V182.464H176.76V181.296ZM182.456 181.664C183.16 184.512 184.728 186.688 187.336 187.584C187.064 187.824 186.712 188.304 186.536 188.624C183.784 187.504 182.184 185.152 181.384 181.888L182.456 181.664ZM180.792 173.952H182.04V179.28C182.04 182.432 181.576 186.256 176.712 188.688C176.536 188.416 176.136 187.952 175.848 187.728C180.616 185.568 180.792 182.08 180.792 179.28V173.952ZM189.96 176.496H194.824V186.96H189.96V185.872H193.704V177.568H189.96V176.496ZM189.24 176.496H190.36V188.24H189.24V176.496ZM189.88 180.944H194.296V182.016H189.88V180.944ZM191.688 173.888L192.984 174.128C192.664 175.12 192.264 176.224 191.944 176.944L190.984 176.704C191.256 175.936 191.56 174.72 191.688 173.888ZM197.096 176.448H202.008V177.568H197.096V176.448ZM201.592 176.448H202.712C202.712 176.448 202.712 176.896 202.712 177.072C202.456 184.416 202.232 186.896 201.592 187.68C201.24 188.144 200.872 188.288 200.312 188.336C199.768 188.4 198.824 188.368 197.928 188.32C197.896 187.968 197.752 187.472 197.528 187.152C198.568 187.232 199.528 187.248 199.896 187.248C200.216 187.248 200.408 187.2 200.584 186.992C201.112 186.416 201.368 183.76 201.592 176.704V176.448ZM197.432 173.856L198.584 174.128C197.992 176.512 197.048 178.864 195.944 180.384C195.736 180.192 195.24 179.856 194.952 179.696C196.04 178.288 196.92 176.08 197.432 173.856ZM196.696 180.608L197.624 180.064C198.536 181.2 199.64 182.752 200.152 183.696L199.128 184.336C198.648 183.36 197.576 181.776 196.696 180.608ZM205.528 175.728H218.264V176.976H205.528V175.728ZM204.68 186.224H219.064V187.424H204.68V186.224ZM211.144 176.352H212.488V186.72H211.144V176.352ZM227.656 176.608H235.24V177.76H227.096L227.656 176.608ZM229.656 180.08H234.872V181.184H229.656V180.08ZM229.64 183.6H235.096V184.736H229.64V183.6ZM229.048 176.976H230.28V188.64H229.048V176.976ZM228.264 174.112L229.432 174.416C228.52 176.96 227.128 179.472 225.656 181.12C225.48 180.912 225 180.48 224.728 180.288C226.184 178.8 227.48 176.464 228.264 174.112ZM224.424 173.984L225.576 174.352C224.52 177.056 222.872 179.792 221.128 181.584C221.016 181.296 220.648 180.656 220.424 180.368C222.024 178.816 223.512 176.416 224.424 173.984ZM222.712 178.112L223.896 176.912L223.928 176.928V188.624H222.712V178.112ZM249.672 174.32L250.568 175.328C248.232 176.128 244.648 176.72 241.608 177.088C241.56 176.8 241.384 176.352 241.256 176.064C244.232 175.68 247.704 175.04 249.672 174.32ZM240.712 180.784H251.224V181.936H240.712V180.784ZM241.336 186.88H250.968V188.032H241.336V186.88ZM245.48 176.096H246.68V187.2H245.48V176.096ZM238.824 178.176L240.008 176.992L240.024 177.024V188.64H238.824V178.176ZM240.568 173.936L241.736 174.304C240.6 177.088 238.808 179.856 236.936 181.68C236.808 181.392 236.44 180.768 236.2 180.464C237.928 178.896 239.576 176.448 240.568 173.936ZM253.88 182.864H264.984V183.92H253.88V182.864ZM264.584 182.864H265.784C265.784 182.864 265.752 183.216 265.72 183.392C265.352 186.304 265 187.536 264.44 188.032C264.104 188.352 263.736 188.432 263.144 188.464C262.664 188.48 261.704 188.48 260.744 188.416C260.728 188.096 260.568 187.648 260.36 187.344C261.368 187.44 262.408 187.456 262.808 187.456C263.144 187.456 263.336 187.44 263.512 187.312C263.928 186.96 264.28 185.744 264.568 183.024L264.584 182.864ZM258.984 181.264L260.232 181.376C259.592 185.712 257.48 187.632 253.432 188.624C253.304 188.352 252.984 187.84 252.76 187.6C256.632 186.864 258.536 185.136 258.984 181.264ZM257 175.568H264.76V176.608H257V175.568ZM264.472 175.568H264.712L264.92 175.52L265.656 176.016C263.336 179.472 258.008 181.072 253.064 181.648C252.984 181.344 252.776 180.864 252.584 180.592C257.336 180.144 262.536 178.64 264.472 175.728V175.568ZM256.984 176.784C258.728 179.04 262.6 180.112 267.224 180.384C266.984 180.656 266.696 181.12 266.552 181.456C261.88 181.072 258.008 179.84 255.992 177.2L256.984 176.784ZM257.976 173.904L259.224 174.144C258.152 175.888 256.488 177.648 254.056 179.008C253.896 178.72 253.544 178.288 253.304 178.112C255.56 176.944 257.144 175.312 257.976 173.904Z" fill="#464F6B"/>
<path d="M358 32V224" stroke="#F4F4F4" stroke-width="2"/>
</g>
<defs>
<filter id="filter0_d_10042_452" x="0" y="0" width="727" height="310" filterUnits="userSpaceOnUse" color-interpolation-filters="sRGB">
<feFlood flood-opacity="0" result="BackgroundImageFix"/>
<feColorMatrix in="SourceAlpha" type="matrix" values="0 0 0 0 0 0 0 0 0 0 0 0 0 0 0 0 0 0 127 0" result="hardAlpha"/>
<feOffset dx="5" dy="27"/>
<feGaussianBlur stdDeviation="29.5"/>
<feColorMatrix type="matrix" values="0 0 0 0 0.121569 0 0 0 0 0.196078 0 0 0 0 0.388235 0 0 0 0.1 0"/>
<feBlend mode="normal" in2="BackgroundImageFix" result="effect1_dropShadow_10042_452"/>
<feBlend mode="normal" in="SourceGraphic" in2="effect1_dropShadow_10042_452" result="shape"/>
</filter>
<clipPath id="clip0_10042_452">
<rect width="609" height="192" fill="white" transform="translate(54 32)"/>
</clipPath>
</defs>
</svg>
