<svg width="294" height="210" viewBox="0 0 294 210" fill="none" xmlns="http://www.w3.org/2000/svg">
<g clip-path="url(#clip0_10042_496)">
<path d="M16.1621 16.505V193.505" stroke="#B5C8ED" stroke-width="2"/>
<rect x="70.1621" y="0.505005" width="223" height="24" rx="2" fill="white"/>
<rect x="70.1621" y="46.505" width="223" height="24" rx="2" fill="white"/>
<rect x="70.1621" y="92.505" width="223" height="24" rx="2" fill="white"/>
<rect x="70.1621" y="138.505" width="223" height="24" rx="2" fill="white"/>
<rect x="70.1621" y="184.505" width="223" height="24" rx="2" fill="white"/>
<path fill-rule="evenodd" clip-rule="evenodd" d="M152.162 164.909H145.395L145.47 0.158813L130.97 0.158813L130.895 164.909H123.162L137.662 182.159L152.162 164.909Z" fill="url(#paint0_linear_10042_496)"/>
<circle cx="16.1621" cy="16.505" r="16" fill="#CDEED5"/>
<path d="M15.288 22V12.304L13.48 12.704V11.776L15.736 10.8H16.648V22H15.288Z" fill="white"/>
<circle cx="16.1621" cy="75.505" r="16" fill="#CDEED5"/>
<path d="M12.008 81V80.056C12.7653 79.4587 13.48 78.856 14.152 78.248C14.8347 77.6293 15.4373 77.0213 15.96 76.424C16.4933 75.8267 16.9093 75.24 17.208 74.664C17.5173 74.088 17.672 73.5333 17.672 73C17.672 72.6053 17.6027 72.2373 17.464 71.896C17.336 71.5547 17.1227 71.2827 16.824 71.08C16.5253 70.8667 16.12 70.76 15.608 70.76C15.1173 70.76 14.7067 70.872 14.376 71.096C14.0453 71.3093 13.7947 71.5973 13.624 71.96C13.464 72.3227 13.384 72.712 13.384 73.128H12.088C12.088 72.392 12.2427 71.7627 12.552 71.24C12.8613 70.7067 13.2827 70.3013 13.816 70.024C14.3493 69.7467 14.952 69.608 15.624 69.608C16.616 69.608 17.4267 69.8907 18.056 70.456C18.696 71.0107 19.016 71.8427 19.016 72.952C19.016 73.6133 18.8507 74.2693 18.52 74.92C18.1893 75.56 17.768 76.184 17.256 76.792C16.744 77.3893 16.1947 77.9493 15.608 78.472C15.032 78.9947 14.4933 79.464 13.992 79.88H19.4V81H12.008Z" fill="white"/>
<circle cx="16.1621" cy="134.505" r="16" fill="#CDEED5"/>
<path d="M15.672 140.192C14.9573 140.192 14.312 140.064 13.736 139.808C13.16 139.541 12.696 139.147 12.344 138.624C12.0027 138.101 11.8213 137.451 11.8 136.672H13.16C13.1707 137.312 13.3947 137.867 13.832 138.336C14.2693 138.795 14.8827 139.024 15.672 139.024C16.4613 139.024 17.0533 138.805 17.448 138.368C17.8533 137.931 18.056 137.403 18.056 136.784C18.056 136.261 17.928 135.835 17.672 135.504C17.4267 135.173 17.0907 134.928 16.664 134.768C16.248 134.608 15.7893 134.528 15.288 134.528H14.456V133.392H15.288C16.0133 133.392 16.5787 133.227 16.984 132.896C17.4 132.565 17.608 132.101 17.608 131.504C17.608 131.003 17.4427 130.592 17.112 130.272C16.792 129.941 16.312 129.776 15.672 129.776C15.0533 129.776 14.5573 129.963 14.184 130.336C13.8107 130.699 13.6027 131.157 13.56 131.712H12.2C12.232 131.104 12.392 130.565 12.68 130.096C12.9787 129.627 13.384 129.264 13.896 129.008C14.408 128.741 15 128.608 15.672 128.608C16.3973 128.608 17 128.736 17.48 128.992C17.9707 129.248 18.3387 129.589 18.584 130.016C18.84 130.443 18.968 130.912 18.968 131.424C18.968 131.989 18.8133 132.507 18.504 132.976C18.1947 133.435 17.7307 133.744 17.112 133.904C17.7733 134.043 18.3227 134.357 18.76 134.848C19.1973 135.339 19.416 135.984 19.416 136.784C19.416 137.403 19.272 137.973 18.984 138.496C18.7067 139.008 18.2907 139.419 17.736 139.728C17.1813 140.037 16.4933 140.192 15.672 140.192Z" fill="white"/>
<circle cx="16.1621" cy="193.505" r="16" fill="#CDEED5"/>
<path d="M17.256 199V196.6H11.576V195.56L17.016 187.8H18.584V195.416H20.248V196.6H18.584V199H17.256ZM13.064 195.416H17.32V189.288L13.064 195.416Z" fill="white"/>
</g>
<defs>
<linearGradient id="paint0_linear_10042_496" x1="152.162" y1="182.159" x2="152.162" y2="0.158813" gradientUnits="userSpaceOnUse">
<stop stop-color="#FD5E10" stop-opacity="0.433909"/>
<stop offset="1" stop-color="white" stop-opacity="0.01"/>
</linearGradient>
<clipPath id="clip0_10042_496">
<rect width="293" height="209.346" fill="white" transform="translate(0.162109 0.158813)"/>
</clipPath>
</defs>
</svg>
