<svg width="293" height="183" viewBox="0 0 293 183" fill="none" xmlns="http://www.w3.org/2000/svg">
<rect x="104.162" y="20.505" width="188" height="24" rx="2" fill="white"/>
<rect x="104.162" y="66.505" width="188" height="24" rx="2" fill="white"/>
<rect x="104.162" y="112.505" width="188" height="24" rx="2" fill="white"/>
<rect x="104.162" y="158.505" width="188" height="24" rx="2" fill="white"/>
<rect x="9.16211" y="20.505" width="75" height="24" rx="2" fill="#CDEED5"/>
<rect x="27.1621" y="66.505" width="57" height="24" rx="2" fill="#CDEED5"/>
<rect x="16.1621" y="112.505" width="68" height="24" rx="2" fill="#CDEED5"/>
<rect x="0.162109" y="158.505" width="84" height="24" rx="2" fill="#CDEED5"/>
<path fill-rule="evenodd" clip-rule="evenodd" d="M113.162 164.909H106.395L106.47 0.158813L91.9698 0.158813L91.8954 164.909H84.1621L98.6621 182.159L113.162 164.909Z" fill="url(#paint0_linear_10042_513)"/>
<path fill-rule="evenodd" clip-rule="evenodd" d="M114.412 20.6588V27.4255L65.1621 27.005V41.505L114.412 41.9255V49.6588L131.662 35.1588L114.412 20.6588Z" fill="url(#paint1_linear_10042_513)"/>
<defs>
<linearGradient id="paint0_linear_10042_513" x1="113.162" y1="182.159" x2="113.162" y2="0.158813" gradientUnits="userSpaceOnUse">
<stop stop-color="#FD5E10" stop-opacity="0.433909"/>
<stop offset="1" stop-color="white" stop-opacity="0.01"/>
</linearGradient>
<linearGradient id="paint1_linear_10042_513" x1="131.662" y1="20.6588" x2="65.1621" y2="20.6588" gradientUnits="userSpaceOnUse">
<stop stop-color="#FD5E10" stop-opacity="0.433909"/>
<stop offset="1" stop-color="white" stop-opacity="0.01"/>
</linearGradient>
</defs>
</svg>
